<svg width="590" height="12903" viewBox="0 0 590 12903" fill="none" xmlns="http://www.w3.org/2000/svg">
<rect width="590" height="12903" fill="white"/>
<circle cx="509.847" cy="12484.8" r="18" transform="rotate(-172.174 509.847 12484.8)" fill="#0071F2" stroke="#2F2E41"/>
<line x1="64.0022" y1="12487" x2="510.002" y2="12488" stroke="#555555" stroke-width="2"/>
<path d="M488.426 12118.9C488.562 12114.9 490.926 12111.3 494.725 12108.7C498.523 12106.1 503.726 12104.6 509.433 12104.8C515.14 12105 520.229 12106.9 523.846 12109.7C527.463 12112.5 529.579 12116.3 529.443 12120.3C529.307 12124.4 526.943 12128 523.144 12130.6C519.346 12133.1 514.143 12134.7 508.436 12134.5C502.73 12134.3 497.64 12132.4 494.023 12129.6C490.406 12126.7 488.29 12123 488.426 12118.9Z" fill="#0071F2" stroke="#2F2E41"/>
<line x1="64.0022" y1="12118" x2="510.002" y2="12119" stroke="#555555" stroke-width="2"/>
<circle cx="504.847" cy="11729.8" r="18" transform="rotate(-172.174 504.847 11729.8)" fill="#0071F2" stroke="#2F2E41"/>
<line x1="64.0022" y1="11749" x2="510.002" y2="11750" stroke="#555555" stroke-width="2"/>
<circle cx="496.847" cy="11338.8" r="18" transform="rotate(-172.174 496.847 11338.8)" fill="#0071F2" stroke="#2F2E41"/>
<line x1="64.0022" y1="11380" x2="510.002" y2="11381" stroke="#555555" stroke-width="2"/>
<circle cx="485.847" cy="10960.8" r="18" transform="rotate(-172.174 485.847 10960.8)" fill="#0071F2" stroke="#2F2E41"/>
<line x1="64.0022" y1="11011" x2="510.002" y2="11012" stroke="#555555" stroke-width="2"/>
<circle cx="477.847" cy="10601.8" r="18" transform="rotate(-172.174 477.847 10601.8)" fill="#0071F2" stroke="#2F2E41"/>
<line x1="64.0022" y1="10642" x2="510.002" y2="10643" stroke="#555555" stroke-width="2"/>
<path d="M456.458 10244.6C457.263 10238.8 459.794 10233.7 463.213 10230.3C466.632 10226.9 470.914 10225.2 475.253 10225.7C479.593 10226.3 483.239 10229.2 485.612 10233.4C487.984 10237.6 489.064 10243.1 488.259 10249C487.454 10254.8 484.923 10259.9 481.504 10263.3C478.085 10266.7 473.804 10268.5 469.464 10267.9C465.124 10267.3 461.478 10264.4 459.106 10260.2C456.733 10256 455.654 10250.5 456.458 10244.6Z" fill="#0071F2" stroke="#2F2E41"/>
<line x1="64.0022" y1="10273" x2="510.002" y2="10274" stroke="#555555" stroke-width="2"/>
<path d="M469.219 9889.49C475.122 9889.76 480.365 9891.82 484.071 9894.92C487.776 9898.01 489.925 9902.11 489.726 9906.49C489.527 9910.87 487.014 9914.76 483.042 9917.5C479.07 9920.25 473.662 9921.82 467.759 9921.56C461.856 9921.29 456.613 9919.22 452.907 9916.13C449.202 9913.03 447.053 9908.93 447.252 9904.56C447.451 9900.18 449.964 9896.29 453.936 9893.54C457.907 9890.8 463.316 9889.22 469.219 9889.49Z" fill="#0071F2" stroke="#2F2E41"/>
<line x1="64.0022" y1="9904" x2="510.002" y2="9905" stroke="#555555" stroke-width="2"/>
<path d="M476.82 9498.24C476.733 9504.14 474.833 9509.45 471.854 9513.25C468.875 9517.05 464.839 9519.32 460.459 9519.26C456.079 9519.19 452.113 9516.8 449.247 9512.92C446.381 9509.03 444.637 9503.67 444.724 9497.76C444.811 9491.86 446.712 9486.55 449.691 9482.75C452.67 9478.95 456.705 9476.68 461.085 9476.74C465.465 9476.81 469.432 9479.2 472.297 9483.08C475.164 9486.97 476.907 9492.33 476.82 9498.24Z" fill="#0071F2" stroke="#2F2E41"/>
<line x1="64.0022" y1="9535" x2="510.002" y2="9536" stroke="#555555" stroke-width="2"/>
<circle cx="446.002" cy="9085" r="18" transform="rotate(8.39192 446.002 9085)" fill="#0071F2" stroke="#2F2E41"/>
<line x1="64.0022" y1="9166" x2="510.002" y2="9167" stroke="#555555" stroke-width="2"/>
<circle cx="446.002" cy="8716" r="18" transform="rotate(8.39192 446.002 8716)" fill="#0071F2" stroke="#2F2E41"/>
<line x1="64.0022" y1="8797" x2="510.002" y2="8798" stroke="#555555" stroke-width="2"/>
<circle cx="436.002" cy="8331" r="18" transform="rotate(8.39192 436.002 8331)" fill="#0071F2" stroke="#2F2E41"/>
<line x1="64.0022" y1="8428" x2="510.002" y2="8429" stroke="#555555" stroke-width="2"/>
<circle cx="420.002" cy="7953" r="18" transform="rotate(8.39192 420.002 7953)" fill="#0071F2" stroke="#2F2E41"/>
<line x1="64.0022" y1="8059" x2="510.002" y2="8060" stroke="#555555" stroke-width="2"/>
<circle cx="405.002" cy="7594" r="18" transform="rotate(8.39192 405.002 7594)" fill="#0071F2" stroke="#2F2E41"/>
<line x1="64.0022" y1="7690" x2="510.002" y2="7691" stroke="#555555" stroke-width="2"/>
<circle cx="394.002" cy="7242" r="18" transform="rotate(8.39192 394.002 7242)" fill="#0071F2" stroke="#2F2E41"/>
<line x1="64.0022" y1="7321" x2="510.002" y2="7322" stroke="#555555" stroke-width="2"/>
<path d="M399.644 6906.63C398.69 6913.1 395.972 6918.66 392.375 6922.42C388.776 6926.19 384.332 6928.13 379.891 6927.47C375.45 6926.82 371.756 6923.68 369.398 6919.03C367.04 6914.39 366.043 6908.28 366.997 6901.82C367.951 6895.35 370.669 6889.79 374.267 6886.03C377.866 6882.26 382.309 6880.32 386.75 6880.98C391.191 6881.63 394.886 6884.77 397.244 6889.42C399.601 6894.06 400.598 6900.17 399.644 6906.63Z" fill="#0071F2" stroke="#2F2E41"/>
<line x1="64.0022" y1="6952" x2="510.002" y2="6953" stroke="#555555" stroke-width="2"/>
<line x1="64.0022" y1="6583" x2="510.002" y2="6584" stroke="#555555" stroke-width="2"/>
<path d="M377.035 6569.64C382.976 6569.67 388.323 6571.42 392.165 6574.19C396.008 6576.96 398.313 6580.73 398.288 6584.82C398.262 6588.91 395.911 6592.64 392.034 6595.37C388.157 6598.09 382.79 6599.77 376.849 6599.73C370.908 6599.7 365.561 6597.95 361.719 6595.18C357.876 6592.41 355.571 6588.64 355.596 6584.55C355.622 6580.46 357.973 6576.73 361.85 6574C365.727 6571.28 371.094 6569.6 377.035 6569.64Z" fill="#0071F2" stroke="#2F2E41"/>
<line x1="64.0022" y1="5845" x2="510.002" y2="5846" stroke="#555555" stroke-width="2"/>
<circle cx="355.483" cy="5737.48" r="18" transform="rotate(-14.2411 355.483 5737.48)" fill="#0071F2" stroke="#2F2E41"/>
<line x1="64.0022" y1="6214" x2="510.002" y2="6215" stroke="#555555" stroke-width="2"/>
<path d="M387.286 6170.3C388.747 6176.06 388.403 6181.67 386.69 6186.09C384.976 6190.5 381.913 6193.68 377.949 6194.69C373.985 6195.7 369.777 6194.36 366.164 6191.3C362.552 6188.23 359.572 6183.46 358.111 6177.7C356.649 6171.94 356.993 6166.33 358.706 6161.91C360.42 6157.5 363.483 6154.32 367.447 6153.31C371.411 6152.3 375.619 6153.64 379.232 6156.7C382.844 6159.77 385.824 6164.54 387.286 6170.3Z" fill="#0071F2" stroke="#2F2E41"/>
<line x1="64.0022" y1="5476" x2="510.002" y2="5477" stroke="#555555" stroke-width="2"/>
<circle cx="337.483" cy="5324.48" r="18" transform="rotate(-14.2411 337.483 5324.48)" fill="#0071F2" stroke="#2F2E41"/>
<line x1="64.0022" y1="5107" x2="510.002" y2="5108" stroke="#555555" stroke-width="2"/>
<circle cx="337.483" cy="4955.48" r="18" transform="rotate(-14.2411 337.483 4955.48)" fill="#0071F2" stroke="#2F2E41"/>
<line x1="64.0022" y1="4738" x2="510.002" y2="4739" stroke="#555555" stroke-width="2"/>
<circle cx="322.483" cy="4567.48" r="18" transform="rotate(-14.2411 322.483 4567.48)" fill="#0071F2" stroke="#2F2E41"/>
<line x1="64.0022" y1="4369" x2="510.002" y2="4370" stroke="#555555" stroke-width="2"/>
<circle cx="300.483" cy="4187.48" r="18" transform="rotate(-14.2411 300.483 4187.48)" fill="#0071F2" stroke="#2F2E41"/>
<line x1="64.0022" y1="4000" x2="510.002" y2="4001" stroke="#555555" stroke-width="2"/>
<circle cx="281.483" cy="3828.48" r="18" transform="rotate(-14.2411 281.483 3828.48)" fill="#0071F2" stroke="#2F2E41"/>
<line x1="64.0022" y1="3631" x2="510.002" y2="3632" stroke="#555555" stroke-width="2"/>
<circle cx="268.483" cy="3479.48" r="18" transform="rotate(-14.2411 268.483 3479.48)" fill="#0071F2" stroke="#2F2E41"/>
<line x1="64.0022" y1="3262" x2="510.002" y2="3263" stroke="#555555" stroke-width="2"/>
<circle cx="254.483" cy="3146.48" r="18" transform="rotate(-14.2411 254.483 3146.48)" fill="#0071F2" stroke="#2F2E41"/>
<line x1="64.0022" y1="2893" x2="510.002" y2="2894" stroke="#555555" stroke-width="2"/>
<path d="M230.159 2827.46C231.158 2821.09 233.845 2815.63 237.356 2811.94C240.87 2808.24 245.169 2806.36 249.427 2807.03C253.685 2807.7 257.202 2810.8 259.417 2815.39C261.631 2819.98 262.517 2826.01 261.519 2832.38C260.52 2838.75 257.833 2844.21 254.321 2847.9C250.808 2851.59 246.509 2853.48 242.251 2852.81C237.993 2852.14 234.476 2849.03 232.261 2844.44C230.047 2839.86 229.161 2833.83 230.159 2827.46Z" fill="#0071F2" stroke="#2F2E41"/>
<line x1="64.0022" y1="2524" x2="510.002" y2="2525" stroke="#555555" stroke-width="2"/>
<path d="M238.704 2509.2C246.047 2509.39 252.623 2511.38 257.319 2514.41C262.023 2517.44 264.769 2521.47 264.657 2525.75C264.546 2530.03 261.594 2533.91 256.738 2536.7C251.892 2539.48 245.221 2541.12 237.879 2540.93C230.536 2540.74 223.96 2538.75 219.265 2535.72C214.56 2532.69 211.814 2528.66 211.926 2524.38C212.037 2520.1 214.989 2516.22 219.845 2513.43C224.692 2510.65 231.362 2509.01 238.704 2509.2Z" fill="#0071F2" stroke="#2F2E41"/>
<line x1="64.0022" y1="2155" x2="510.002" y2="2156" stroke="#555555" stroke-width="2"/>
<path d="M244.428 2107.52C246.235 2114.64 246.106 2121.51 244.462 2126.85C242.815 2132.2 239.682 2135.94 235.533 2136.99C231.385 2138.04 226.849 2136.25 222.849 2132.34C218.857 2128.42 215.468 2122.45 213.662 2115.33C211.855 2108.21 211.984 2101.34 213.628 2096C215.275 2090.65 218.408 2086.91 222.557 2085.86C226.705 2084.81 231.241 2086.6 235.241 2090.52C239.233 2094.43 242.621 2100.4 244.428 2107.52Z" fill="#0071F2" stroke="#2F2E41"/>
<line x1="64.0022" y1="1786" x2="510.002" y2="1787" stroke="#555555" stroke-width="2"/>
<path d="M218.338 1652.73C221.16 1663.84 216.399 1674.41 208.009 1676.54C199.619 1678.67 190.393 1671.65 187.572 1660.53C184.75 1649.42 189.511 1638.85 197.901 1636.72C206.291 1634.59 215.517 1641.61 218.338 1652.73Z" fill="#0071F2" stroke="#2F2E41"/>
<line x1="64.0022" y1="1417" x2="510.002" y2="1418" stroke="#555555" stroke-width="2"/>
<circle cx="172.5" cy="1223.5" r="18" fill="#0071F2" stroke="#2F2E41"/>
<line x1="64.0022" y1="1048" x2="510.002" y2="1049" stroke="#555555" stroke-width="2"/>
<circle cx="134.5" cy="811.5" r="18" fill="#0071F2" stroke="#2F2E41"/>
<line x1="64.0022" y1="679" x2="510.002" y2="680" stroke="#555555" stroke-width="2"/>
<circle cx="103.5" cy="423.5" r="18" fill="#0071F2" stroke="#2F2E41"/>
<circle cx="76.5" cy="46.5" r="18" fill="#0071F2" stroke="#2F2E41"/>
<line x1="64.0022" y1="310" x2="510.002" y2="311" stroke="#555555" stroke-width="2"/>
</svg>
